<?xml version="1.0" encoding="UTF-8" standalone="no"?><!DOCTYPE svg PUBLIC "-//W3C//DTD SVG 1.1//EN" "http://www.w3.org/Graphics/SVG/1.1/DTD/svg11.dtd"><!-- Generated by graphviz version 2.40.1 (20161225.0304)
 --><!-- Title: dijkstra_flowchart Pages: 1 --><svg xmlns="http://www.w3.org/2000/svg" xmlns:xlink="http://www.w3.org/1999/xlink" width="323pt" height="1052pt" viewBox="0.00 0.00 322.93 1052.00">
<g id="graph0" class="graph" transform="scale(1 1) rotate(0) translate(4 1048)">
<title>dijkstra_flowchart</title>
<polygon fill="#ffffff" stroke="transparent" points="-4,4 -4,-1048 318.9292,-1048 318.9292,4 -4,4"/>
<!-- Start -->
<g id="node1" class="node">
<title>Start</title>
<path fill="none" stroke="#000000" d="M219.2188,-1044C219.2188,-1044 189.2188,-1044 189.2188,-1044 183.2188,-1044 177.2188,-1038 177.2188,-1032 177.2188,-1032 177.2188,-1020 177.2188,-1020 177.2188,-1014 183.2188,-1008 189.2188,-1008 189.2188,-1008 219.2188,-1008 219.2188,-1008 225.2188,-1008 231.2188,-1014 231.2188,-1020 231.2188,-1020 231.2188,-1032 231.2188,-1032 231.2188,-1038 225.2188,-1044 219.2188,-1044"/>
<text text-anchor="middle" x="204.2188" y="-1021.8" font-family="Times,serif" font-size="14.00" fill="#000000">Start</text>
</g>
<!-- Initialize -->
<g id="node2" class="node">
<title>Initialize</title>
<path fill="none" stroke="#000000" d="M224.9766,-960C224.9766,-960 183.461,-960 183.461,-960 177.461,-960 171.461,-954 171.461,-948 171.461,-948 171.461,-936 171.461,-936 171.461,-930 177.461,-924 183.461,-924 183.461,-924 224.9766,-924 224.9766,-924 230.9766,-924 236.9766,-930 236.9766,-936 236.9766,-936 236.9766,-948 236.9766,-948 236.9766,-954 230.9766,-960 224.9766,-960"/>
<text text-anchor="middle" x="204.2188" y="-937.8" font-family="Times,serif" font-size="14.00" fill="#000000">Initialize</text>
</g>
<!-- Start&#45;&gt;Initialize -->
<g id="edge1" class="edge">
<title>Start-&gt;Initialize</title>
<path fill="none" stroke="#000000" d="M204.2188,-1007.7733C204.2188,-996.8758 204.2188,-982.7946 204.2188,-970.4587"/>
<polygon fill="#000000" stroke="#000000" points="207.7189,-970.1911 204.2188,-960.1912 200.7189,-970.1912 207.7189,-970.1911"/>
<text text-anchor="middle" x="205.6083" y="-981" font-family="Arial" font-size="10.00" fill="#000000"> </text>
</g>
<!-- SetStartNode -->
<g id="node3" class="node">
<title>SetStartNode</title>
<path fill="none" stroke="#000000" d="M237.3675,-876C237.3675,-876 171.0701,-876 171.0701,-876 165.0701,-876 159.0701,-870 159.0701,-864 159.0701,-864 159.0701,-852 159.0701,-852 159.0701,-846 165.0701,-840 171.0701,-840 171.0701,-840 237.3675,-840 237.3675,-840 243.3675,-840 249.3675,-846 249.3675,-852 249.3675,-852 249.3675,-864 249.3675,-864 249.3675,-870 243.3675,-876 237.3675,-876"/>
<text text-anchor="middle" x="204.2188" y="-853.8" font-family="Times,serif" font-size="14.00" fill="#000000">SetStartNode</text>
</g>
<!-- Initialize&#45;&gt;SetStartNode -->
<g id="edge2" class="edge">
<title>Initialize-&gt;SetStartNode</title>
<path fill="none" stroke="#000000" d="M204.2188,-923.7733C204.2188,-912.8758 204.2188,-898.7946 204.2188,-886.4587"/>
<polygon fill="#000000" stroke="#000000" points="207.7189,-886.1911 204.2188,-876.1912 200.7189,-886.1912 207.7189,-886.1911"/>
<text text-anchor="middle" x="205.6083" y="-897" font-family="Arial" font-size="10.00" fill="#000000"> </text>
</g>
<!-- CheckNodes -->
<g id="node4" class="node">
<title>CheckNodes</title>
<path fill="none" stroke="#000000" d="M235.7516,-792C235.7516,-792 172.686,-792 172.686,-792 166.686,-792 160.686,-786 160.686,-780 160.686,-780 160.686,-768 160.686,-768 160.686,-762 166.686,-756 172.686,-756 172.686,-756 235.7516,-756 235.7516,-756 241.7516,-756 247.7516,-762 247.7516,-768 247.7516,-768 247.7516,-780 247.7516,-780 247.7516,-786 241.7516,-792 235.7516,-792"/>
<text text-anchor="middle" x="204.2188" y="-769.8" font-family="Times,serif" font-size="14.00" fill="#000000">CheckNodes</text>
</g>
<!-- SetStartNode&#45;&gt;CheckNodes -->
<g id="edge3" class="edge">
<title>SetStartNode-&gt;CheckNodes</title>
<path fill="none" stroke="#000000" d="M204.2188,-839.7733C204.2188,-828.8758 204.2188,-814.7946 204.2188,-802.4587"/>
<polygon fill="#000000" stroke="#000000" points="207.7189,-802.1911 204.2188,-792.1912 200.7189,-802.1912 207.7189,-802.1911"/>
<text text-anchor="middle" x="205.6083" y="-813" font-family="Arial" font-size="10.00" fill="#000000"> </text>
</g>
<!-- Explore -->
<g id="node5" class="node">
<title>Explore</title>
<path fill="none" stroke="#000000" d="M72.538,-708C72.538,-708 35.8996,-708 35.8996,-708 29.8996,-708 23.8996,-702 23.8996,-696 23.8996,-696 23.8996,-684 23.8996,-684 23.8996,-678 29.8996,-672 35.8996,-672 35.8996,-672 72.538,-672 72.538,-672 78.538,-672 84.538,-678 84.538,-684 84.538,-684 84.538,-696 84.538,-696 84.538,-702 78.538,-708 72.538,-708"/>
<text text-anchor="middle" x="54.2188" y="-685.8" font-family="Times,serif" font-size="14.00" fill="#000000">Explore</text>
</g>
<!-- CheckNodes&#45;&gt;Explore -->
<g id="edge4" class="edge">
<title>CheckNodes-&gt;Explore</title>
<path fill="none" stroke="#000000" d="M172.04,-755.9799C149.0641,-743.1133 118.025,-725.7315 93.5729,-712.0383"/>
<polygon fill="#000000" stroke="#000000" points="94.9897,-708.8203 84.5545,-706.988 91.5694,-714.9278 94.9897,-708.8203"/>
<text text-anchor="middle" x="146.8328" y="-729" font-family="Arial" font-size="10.00" fill="#000000">Yes</text>
</g>
<!-- CheckFound -->
<g id="node6" class="node">
<title>CheckFound</title>
<path fill="none" stroke="#000000" d="M235.7684,-708C235.7684,-708 172.6692,-708 172.6692,-708 166.6692,-708 160.6692,-702 160.6692,-696 160.6692,-696 160.6692,-684 160.6692,-684 160.6692,-678 166.6692,-672 172.6692,-672 172.6692,-672 235.7684,-672 235.7684,-672 241.7684,-672 247.7684,-678 247.7684,-684 247.7684,-684 247.7684,-696 247.7684,-696 247.7684,-702 241.7684,-708 235.7684,-708"/>
<text text-anchor="middle" x="204.2188" y="-685.8" font-family="Times,serif" font-size="14.00" fill="#000000">CheckFound</text>
</g>
<!-- CheckNodes&#45;&gt;CheckFound -->
<g id="edge5" class="edge">
<title>CheckNodes-&gt;CheckFound</title>
<path fill="none" stroke="#000000" d="M204.2188,-755.7733C204.2188,-744.8758 204.2188,-730.7946 204.2188,-718.4587"/>
<polygon fill="#000000" stroke="#000000" points="207.7189,-718.1911 204.2188,-708.1912 200.7189,-718.1912 207.7189,-718.1911"/>
<text text-anchor="middle" x="210.6078" y="-729" font-family="Arial" font-size="10.00" fill="#000000">No</text>
</g>
<!-- Visited -->
<g id="node7" class="node">
<title>Visited</title>
<path fill="none" stroke="#000000" d="M44.6581,-624C44.6581,-624 11.7795,-624 11.7795,-624 5.7795,-624 -.2205,-618 -.2205,-612 -.2205,-612 -.2205,-600 -.2205,-600 -.2205,-594 5.7795,-588 11.7795,-588 11.7795,-588 44.6581,-588 44.6581,-588 50.6581,-588 56.6581,-594 56.6581,-600 56.6581,-600 56.6581,-612 56.6581,-612 56.6581,-618 50.6581,-624 44.6581,-624"/>
<text text-anchor="middle" x="28.2188" y="-601.8" font-family="Times,serif" font-size="14.00" fill="#000000">Visited</text>
</g>
<!-- Explore&#45;&gt;Visited -->
<g id="edge6" class="edge">
<title>Explore-&gt;Visited</title>
<path fill="none" stroke="#000000" d="M43.2508,-671.8287C40.3104,-666.2722 37.4058,-660.032 35.4398,-654 33.3834,-647.6903 31.9088,-640.7204 30.8527,-634.0935"/>
<polygon fill="#000000" stroke="#000000" points="34.3116,-633.5529 29.5142,-624.1065 27.3737,-634.4828 34.3116,-633.5529"/>
<text text-anchor="middle" x="37.6083" y="-645" font-family="Arial" font-size="10.00" fill="#000000"> </text>
</g>
<!-- ReturnMinus1 -->
<g id="node15" class="node">
<title>ReturnMinus1</title>
<path fill="none" stroke="#000000" d="M159.6011,-624C159.6011,-624 86.8365,-624 86.8365,-624 80.8365,-624 74.8365,-618 74.8365,-612 74.8365,-612 74.8365,-600 74.8365,-600 74.8365,-594 80.8365,-588 86.8365,-588 86.8365,-588 159.6011,-588 159.6011,-588 165.6011,-588 171.6011,-594 171.6011,-600 171.6011,-600 171.6011,-612 171.6011,-612 171.6011,-618 165.6011,-624 159.6011,-624"/>
<text text-anchor="middle" x="123.2188" y="-601.8" font-family="Times,serif" font-size="14.00" fill="#000000">ReturnMinus1</text>
</g>
<!-- CheckFound&#45;&gt;ReturnMinus1 -->
<g id="edge18" class="edge">
<title>CheckFound-&gt;ReturnMinus1</title>
<path fill="none" stroke="#000000" d="M186.643,-671.7733C175.2856,-659.9952 160.3419,-644.4981 147.8128,-631.5049"/>
<polygon fill="#000000" stroke="#000000" points="150.2211,-628.9602 140.7603,-624.1912 145.1822,-633.8191 150.2211,-628.9602"/>
<text text-anchor="middle" x="174.6078" y="-645" font-family="Arial" font-size="10.00" fill="#000000">No</text>
</g>
<!-- TracePath -->
<g id="node16" class="node">
<title>TracePath</title>
<path fill="none" stroke="#000000" d="M250.464,-624C250.464,-624 201.9736,-624 201.9736,-624 195.9736,-624 189.9736,-618 189.9736,-612 189.9736,-612 189.9736,-600 189.9736,-600 189.9736,-594 195.9736,-588 201.9736,-588 201.9736,-588 250.464,-588 250.464,-588 256.464,-588 262.464,-594 262.464,-600 262.464,-600 262.464,-612 262.464,-612 262.464,-618 256.464,-624 250.464,-624"/>
<text text-anchor="middle" x="226.2188" y="-601.8" font-family="Times,serif" font-size="14.00" fill="#000000">TracePath</text>
</g>
<!-- CheckFound&#45;&gt;TracePath -->
<g id="edge19" class="edge">
<title>CheckFound-&gt;TracePath</title>
<path fill="none" stroke="#000000" d="M208.9925,-671.7733C211.8754,-660.7657 215.6091,-646.5098 218.8631,-634.0854"/>
<polygon fill="#000000" stroke="#000000" points="222.3066,-634.7517 221.4544,-624.1912 215.535,-632.9781 222.3066,-634.7517"/>
<text text-anchor="middle" x="224.8328" y="-645" font-family="Arial" font-size="10.00" fill="#000000">Yes</text>
</g>
<!-- Visited&#45;&gt;Explore -->
<g id="edge7" class="edge">
<title>Visited-&gt;Explore</title>
<path fill="none" stroke="#000000" d="M33.8494,-624.1912C37.2543,-635.1917 41.6664,-649.4461 45.5133,-661.8744"/>
<polygon fill="#000000" stroke="#000000" points="42.2768,-663.2553 48.5772,-671.7733 48.9638,-661.1855 42.2768,-663.2553"/>
<text text-anchor="middle" x="51.8328" y="-645" font-family="Arial" font-size="10.00" fill="#000000">Yes</text>
</g>
<!-- UpdateDistance -->
<g id="node8" class="node">
<title>UpdateDistance</title>
<path fill="none" stroke="#000000" d="M98.1222,-540C98.1222,-540 16.3154,-540 16.3154,-540 10.3154,-540 4.3154,-534 4.3154,-528 4.3154,-528 4.3154,-516 4.3154,-516 4.3154,-510 10.3154,-504 16.3154,-504 16.3154,-504 98.1222,-504 98.1222,-504 104.1222,-504 110.1222,-510 110.1222,-516 110.1222,-516 110.1222,-528 110.1222,-528 110.1222,-534 104.1222,-540 98.1222,-540"/>
<text text-anchor="middle" x="57.2188" y="-517.8" font-family="Times,serif" font-size="14.00" fill="#000000">UpdateDistance</text>
</g>
<!-- Visited&#45;&gt;UpdateDistance -->
<g id="edge8" class="edge">
<title>Visited-&gt;UpdateDistance</title>
<path fill="none" stroke="#000000" d="M34.5114,-587.7733C38.3496,-576.6557 43.3318,-562.2244 47.6511,-549.7132"/>
<polygon fill="#000000" stroke="#000000" points="50.9835,-550.7859 50.9385,-540.1912 44.3667,-548.5015 50.9835,-550.7859"/>
<text text-anchor="middle" x="51.6078" y="-561" font-family="Arial" font-size="10.00" fill="#000000">No</text>
</g>
<!-- Found -->
<g id="node9" class="node">
<title>Found</title>
<path fill="none" stroke="#000000" d="M98.2188,-456C98.2188,-456 68.2188,-456 68.2188,-456 62.2188,-456 56.2188,-450 56.2188,-444 56.2188,-444 56.2188,-432 56.2188,-432 56.2188,-426 62.2188,-420 68.2188,-420 68.2188,-420 98.2188,-420 98.2188,-420 104.2188,-420 110.2188,-426 110.2188,-432 110.2188,-432 110.2188,-444 110.2188,-444 110.2188,-450 104.2188,-456 98.2188,-456"/>
<text text-anchor="middle" x="83.2188" y="-433.8" font-family="Times,serif" font-size="14.00" fill="#000000">Found</text>
</g>
<!-- UpdateDistance&#45;&gt;Found -->
<g id="edge9" class="edge">
<title>UpdateDistance-&gt;Found</title>
<path fill="none" stroke="#000000" d="M58.5142,-503.8935C59.5237,-494.7626 61.3062,-483.6148 64.4398,-474 65.3921,-471.0782 66.5646,-468.1076 67.8547,-465.1895"/>
<polygon fill="#000000" stroke="#000000" points="71.015,-466.6938 72.2508,-456.1713 64.7228,-463.6265 71.015,-466.6938"/>
<text text-anchor="middle" x="66.6083" y="-477" font-family="Arial" font-size="10.00" fill="#000000"> </text>
</g>
<!-- Found&#45;&gt;UpdateDistance -->
<g id="edge10" class="edge">
<title>Found-&gt;UpdateDistance</title>
<path fill="none" stroke="#000000" d="M77.5882,-456.1912C74.1833,-467.1917 69.7712,-481.4461 65.9243,-493.8744"/>
<polygon fill="#000000" stroke="#000000" points="62.4738,-493.1855 62.8604,-503.7733 69.1608,-495.2553 62.4738,-493.1855"/>
<text text-anchor="middle" x="78.6078" y="-477" font-family="Arial" font-size="10.00" fill="#000000">No</text>
</g>
<!-- SetFound -->
<g id="node10" class="node">
<title>SetFound</title>
<path fill="none" stroke="#000000" d="M119.89,-372C119.89,-372 74.5476,-372 74.5476,-372 68.5476,-372 62.5476,-366 62.5476,-360 62.5476,-360 62.5476,-348 62.5476,-348 62.5476,-342 68.5476,-336 74.5476,-336 74.5476,-336 119.89,-336 119.89,-336 125.89,-336 131.89,-342 131.89,-348 131.89,-348 131.89,-360 131.89,-360 131.89,-366 125.89,-372 119.89,-372"/>
<text text-anchor="middle" x="97.2188" y="-349.8" font-family="Times,serif" font-size="14.00" fill="#000000">SetFound</text>
</g>
<!-- Found&#45;&gt;SetFound -->
<g id="edge11" class="edge">
<title>Found-&gt;SetFound</title>
<path fill="none" stroke="#000000" d="M86.2566,-419.7733C88.0912,-408.7657 90.4672,-394.5098 92.5379,-382.0854"/>
<polygon fill="#000000" stroke="#000000" points="95.9952,-382.6305 94.1869,-372.1912 89.0905,-381.4797 95.9952,-382.6305"/>
<text text-anchor="middle" x="99.8328" y="-393" font-family="Arial" font-size="10.00" fill="#000000">Yes</text>
</g>
<!-- RemoveNode -->
<g id="node11" class="node">
<title>RemoveNode</title>
<path fill="none" stroke="#000000" d="M134.6964,-288C134.6964,-288 65.7412,-288 65.7412,-288 59.7412,-288 53.7412,-282 53.7412,-276 53.7412,-276 53.7412,-264 53.7412,-264 53.7412,-258 59.7412,-252 65.7412,-252 65.7412,-252 134.6964,-252 134.6964,-252 140.6964,-252 146.6964,-258 146.6964,-264 146.6964,-264 146.6964,-276 146.6964,-276 146.6964,-282 140.6964,-288 134.6964,-288"/>
<text text-anchor="middle" x="100.2188" y="-265.8" font-family="Times,serif" font-size="14.00" fill="#000000">RemoveNode</text>
</g>
<!-- SetFound&#45;&gt;RemoveNode -->
<g id="edge12" class="edge">
<title>SetFound-&gt;RemoveNode</title>
<path fill="none" stroke="#000000" d="M97.8698,-335.7733C98.2589,-324.8758 98.7618,-310.7946 99.2024,-298.4587"/>
<polygon fill="#000000" stroke="#000000" points="102.7099,-298.3098 99.5691,-288.1912 95.7143,-298.0599 102.7099,-298.3098"/>
<text text-anchor="middle" x="100.6083" y="-309" font-family="Arial" font-size="10.00" fill="#000000"> </text>
</g>
<!-- CheckEmpty -->
<g id="node12" class="node">
<title>CheckEmpty</title>
<path fill="none" stroke="#000000" d="M158.8185,-204C158.8185,-204 93.6191,-204 93.6191,-204 87.6191,-204 81.6191,-198 81.6191,-192 81.6191,-192 81.6191,-180 81.6191,-180 81.6191,-174 87.6191,-168 93.6191,-168 93.6191,-168 158.8185,-168 158.8185,-168 164.8185,-168 170.8185,-174 170.8185,-180 170.8185,-180 170.8185,-192 170.8185,-192 170.8185,-198 164.8185,-204 158.8185,-204"/>
<text text-anchor="middle" x="126.2188" y="-181.8" font-family="Times,serif" font-size="14.00" fill="#000000">CheckEmpty</text>
</g>
<!-- RemoveNode&#45;&gt;CheckEmpty -->
<g id="edge13" class="edge">
<title>RemoveNode-&gt;CheckEmpty</title>
<path fill="none" stroke="#000000" d="M101.5142,-251.8935C102.5237,-242.7626 104.3062,-231.6148 107.4398,-222 108.3921,-219.0782 109.5646,-216.1076 110.8547,-213.1895"/>
<polygon fill="#000000" stroke="#000000" points="114.015,-214.6938 115.2508,-204.1713 107.7228,-211.6265 114.015,-214.6938"/>
<text text-anchor="middle" x="109.6083" y="-225" font-family="Arial" font-size="10.00" fill="#000000"> </text>
</g>
<!-- CheckEmpty&#45;&gt;RemoveNode -->
<g id="edge14" class="edge">
<title>CheckEmpty-&gt;RemoveNode</title>
<path fill="none" stroke="#000000" d="M120.5882,-204.1912C117.1833,-215.1917 112.7712,-229.4461 108.9243,-241.8744"/>
<polygon fill="#000000" stroke="#000000" points="105.4738,-241.1855 105.8604,-251.7733 112.1608,-243.2553 105.4738,-241.1855"/>
<text text-anchor="middle" x="121.6078" y="-225" font-family="Arial" font-size="10.00" fill="#000000">No</text>
</g>
<!-- FindMinimum -->
<g id="node13" class="node">
<title>FindMinimum</title>
<path fill="none" stroke="#000000" d="M243.8995,-120C243.8995,-120 170.5381,-120 170.5381,-120 164.5381,-120 158.5381,-114 158.5381,-108 158.5381,-108 158.5381,-96 158.5381,-96 158.5381,-90 164.5381,-84 170.5381,-84 170.5381,-84 243.8995,-84 243.8995,-84 249.8995,-84 255.8995,-90 255.8995,-96 255.8995,-96 255.8995,-108 255.8995,-108 255.8995,-114 249.8995,-120 243.8995,-120"/>
<text text-anchor="middle" x="207.2188" y="-97.8" font-family="Times,serif" font-size="14.00" fill="#000000">FindMinimum</text>
</g>
<!-- CheckEmpty&#45;&gt;FindMinimum -->
<g id="edge15" class="edge">
<title>CheckEmpty-&gt;FindMinimum</title>
<path fill="none" stroke="#000000" d="M143.7946,-167.7733C155.152,-155.9952 170.0957,-140.4981 182.6248,-127.5049"/>
<polygon fill="#000000" stroke="#000000" points="185.2554,-129.8191 189.6773,-120.1912 180.2165,-124.9602 185.2554,-129.8191"/>
<text text-anchor="middle" x="179.8328" y="-141" font-family="Arial" font-size="10.00" fill="#000000">Yes</text>
</g>
<!-- SetNextNode -->
<g id="node14" class="node">
<title>SetNextNode</title>
<path fill="none" stroke="#000000" d="M303.1406,-36C303.1406,-36 235.297,-36 235.297,-36 229.297,-36 223.297,-30 223.297,-24 223.297,-24 223.297,-12 223.297,-12 223.297,-6 229.297,0 235.297,0 235.297,0 303.1406,0 303.1406,0 309.1406,0 315.1406,-6 315.1406,-12 315.1406,-12 315.1406,-24 315.1406,-24 315.1406,-30 309.1406,-36 303.1406,-36"/>
<text text-anchor="middle" x="269.2188" y="-13.8" font-family="Times,serif" font-size="14.00" fill="#000000">SetNextNode</text>
</g>
<!-- FindMinimum&#45;&gt;SetNextNode -->
<g id="edge16" class="edge">
<title>FindMinimum-&gt;SetNextNode</title>
<path fill="none" stroke="#000000" d="M220.6719,-83.7733C229.1215,-72.3254 240.1643,-57.3641 249.5828,-44.6036"/>
<polygon fill="#000000" stroke="#000000" points="252.6694,-46.3154 255.792,-36.1912 247.0374,-42.1584 252.6694,-46.3154"/>
<text text-anchor="middle" x="242.6083" y="-57" font-family="Arial" font-size="10.00" fill="#000000"> </text>
</g>
<!-- SetNextNode&#45;&gt;CheckNodes -->
<g id="edge17" class="edge">
<title>SetNextNode-&gt;CheckNodes</title>
<path fill="none" stroke="#000000" d="M282.9377,-36.28C293.8223,-52.6191 307.2188,-77.6706 307.2188,-102 307.2188,-690 307.2188,-690 307.2188,-690 307.2188,-719.1038 282.2161,-739.9197 256.848,-753.5498"/>
<polygon fill="#000000" stroke="#000000" points="255.2456,-750.4379 247.9001,-758.073 258.4036,-756.6851 255.2456,-750.4379"/>
<text text-anchor="middle" x="308.6083" y="-393" font-family="Arial" font-size="10.00" fill="#000000"> </text>
</g>
<!-- AddPath -->
<g id="node17" class="node">
<title>AddPath</title>
<path fill="none" stroke="#000000" d="M211.7132,-540C211.7132,-540 170.7244,-540 170.7244,-540 164.7244,-540 158.7244,-534 158.7244,-528 158.7244,-528 158.7244,-516 158.7244,-516 158.7244,-510 164.7244,-504 170.7244,-504 170.7244,-504 211.7132,-504 211.7132,-504 217.7132,-504 223.7132,-510 223.7132,-516 223.7132,-516 223.7132,-528 223.7132,-528 223.7132,-534 217.7132,-540 211.7132,-540"/>
<text text-anchor="middle" x="191.2188" y="-517.8" font-family="Times,serif" font-size="14.00" fill="#000000">AddPath</text>
</g>
<!-- TracePath&#45;&gt;AddPath -->
<g id="edge20" class="edge">
<title>TracePath-&gt;AddPath</title>
<path fill="none" stroke="#000000" d="M196.4617,-587.6639C190.7901,-582.6821 185.634,-576.7621 182.4398,-570 179.5429,-563.8672 179.3166,-556.8756 180.3739,-550.1622"/>
<polygon fill="#000000" stroke="#000000" points="183.8828,-550.5534 182.8925,-540.0049 177.0886,-548.8686 183.8828,-550.5534"/>
<text text-anchor="middle" x="183.6083" y="-561" font-family="Arial" font-size="10.00" fill="#000000"> </text>
</g>
<!-- AddPath&#45;&gt;TracePath -->
<g id="edge21" class="edge">
<title>AddPath-&gt;TracePath</title>
<path fill="none" stroke="#000000" d="M194.0193,-540.254C195.8074,-549.4226 198.5704,-560.5595 202.6368,-570 203.9373,-573.0193 205.4875,-576.0642 207.163,-579.0367"/>
<polygon fill="#000000" stroke="#000000" points="204.2281,-580.946 212.4413,-587.639 210.1945,-577.2851 204.2281,-580.946"/>
<text text-anchor="middle" x="247.5098" y="-561" font-family="Arial" font-size="10.00" fill="#000000">Path is not complete</text>
</g>
<!-- ReversePath -->
<g id="node18" class="node">
<title>ReversePath</title>
<path fill="none" stroke="#000000" d="M222.1922,-456C222.1922,-456 160.2454,-456 160.2454,-456 154.2454,-456 148.2454,-450 148.2454,-444 148.2454,-444 148.2454,-432 148.2454,-432 148.2454,-426 154.2454,-420 160.2454,-420 160.2454,-420 222.1922,-420 222.1922,-420 228.1922,-420 234.1922,-426 234.1922,-432 234.1922,-432 234.1922,-444 234.1922,-444 234.1922,-450 228.1922,-456 222.1922,-456"/>
<text text-anchor="middle" x="191.2188" y="-433.8" font-family="Times,serif" font-size="14.00" fill="#000000">ReversePath</text>
</g>
<!-- AddPath&#45;&gt;ReversePath -->
<g id="edge22" class="edge">
<title>AddPath-&gt;ReversePath</title>
<path fill="none" stroke="#000000" d="M191.2188,-503.7733C191.2188,-492.8758 191.2188,-478.7946 191.2188,-466.4587"/>
<polygon fill="#000000" stroke="#000000" points="194.7189,-466.1911 191.2188,-456.1912 187.7189,-466.1912 194.7189,-466.1911"/>
<text text-anchor="middle" x="228.1718" y="-477" font-family="Arial" font-size="10.00" fill="#000000">Path is complete</text>
</g>
<!-- ReturnPath -->
<g id="node19" class="node">
<title>ReturnPath</title>
<path fill="none" stroke="#000000" d="M218.709,-372C218.709,-372 163.7286,-372 163.7286,-372 157.7286,-372 151.7286,-366 151.7286,-360 151.7286,-360 151.7286,-348 151.7286,-348 151.7286,-342 157.7286,-336 163.7286,-336 163.7286,-336 218.709,-336 218.709,-336 224.709,-336 230.709,-342 230.709,-348 230.709,-348 230.709,-360 230.709,-360 230.709,-366 224.709,-372 218.709,-372"/>
<text text-anchor="middle" x="191.2188" y="-349.8" font-family="Times,serif" font-size="14.00" fill="#000000">ReturnPath</text>
</g>
<!-- ReversePath&#45;&gt;ReturnPath -->
<g id="edge23" class="edge">
<title>ReversePath-&gt;ReturnPath</title>
<path fill="none" stroke="#000000" d="M191.2188,-419.7733C191.2188,-408.8758 191.2188,-394.7946 191.2188,-382.4587"/>
<polygon fill="#000000" stroke="#000000" points="194.7189,-382.1911 191.2188,-372.1912 187.7189,-382.1912 194.7189,-382.1911"/>
<text text-anchor="middle" x="192.6083" y="-393" font-family="Arial" font-size="10.00" fill="#000000"> </text>
</g>
<!-- End -->
<g id="node20" class="node">
<title>End</title>
<path fill="none" stroke="#000000" d="M206.2188,-288C206.2188,-288 176.2188,-288 176.2188,-288 170.2188,-288 164.2188,-282 164.2188,-276 164.2188,-276 164.2188,-264 164.2188,-264 164.2188,-258 170.2188,-252 176.2188,-252 176.2188,-252 206.2188,-252 206.2188,-252 212.2188,-252 218.2188,-258 218.2188,-264 218.2188,-264 218.2188,-276 218.2188,-276 218.2188,-282 212.2188,-288 206.2188,-288"/>
<text text-anchor="middle" x="191.2188" y="-265.8" font-family="Times,serif" font-size="14.00" fill="#000000">End</text>
</g>
<!-- ReturnPath&#45;&gt;End -->
<g id="edge24" class="edge">
<title>ReturnPath-&gt;End</title>
<path fill="none" stroke="#000000" d="M191.2188,-335.7733C191.2188,-324.8758 191.2188,-310.7946 191.2188,-298.4587"/>
<polygon fill="#000000" stroke="#000000" points="194.7189,-298.1911 191.2188,-288.1912 187.7189,-298.1912 194.7189,-298.1911"/>
<text text-anchor="middle" x="192.6083" y="-309" font-family="Arial" font-size="10.00" fill="#000000"> </text>
</g>
</g>
</svg>